<mxfile host="app.diagrams.net" agent="Mozilla/5.0 (Windows NT 10.0; Win64; x64; rv:136.0) Gecko/20100101 Firefox/136.0" version="26.1.3">
  <diagram name="Page-1" id="C0442y0W33Tc49zN1pSF">
    <mxGraphModel dx="546" dy="777" grid="0" gridSize="10" guides="1" tooltips="1" connect="1" arrows="1" fold="1" page="1" pageScale="1" pageWidth="1169" pageHeight="827" math="0" shadow="0">
      <root>
        <mxCell id="0" />
        <mxCell id="1" parent="0" />
        <mxCell id="f6I67G7jqLtZipKl-iz8-1" value="&lt;div&gt;Main&lt;/div&gt;&lt;div&gt;Backdoor&lt;/div&gt;" style="rounded=1;whiteSpace=wrap;html=1;" vertex="1" parent="1">
          <mxGeometry x="170" y="180" width="110" height="60" as="geometry" />
        </mxCell>
        <mxCell id="f6I67G7jqLtZipKl-iz8-2" value="&lt;div&gt;Additional&lt;/div&gt;&lt;div&gt;Backdoor&lt;/div&gt;" style="rounded=1;whiteSpace=wrap;html=1;" vertex="1" parent="1">
          <mxGeometry x="360" y="140" width="110" height="60" as="geometry" />
        </mxCell>
        <mxCell id="f6I67G7jqLtZipKl-iz8-3" value="&lt;div&gt;Additional&lt;/div&gt;&lt;div&gt;Tools&lt;/div&gt;" style="rounded=1;whiteSpace=wrap;html=1;" vertex="1" parent="1">
          <mxGeometry x="360" y="220" width="110" height="60" as="geometry" />
        </mxCell>
        <mxCell id="f6I67G7jqLtZipKl-iz8-5" value="&lt;div&gt;Launcher&lt;/div&gt;&lt;div&gt;Component&lt;/div&gt;" style="rounded=1;whiteSpace=wrap;html=1;" vertex="1" parent="1">
          <mxGeometry x="170" y="300" width="110" height="60" as="geometry" />
        </mxCell>
        <mxCell id="f6I67G7jqLtZipKl-iz8-6" value="&lt;div&gt;Data&lt;/div&gt;&lt;div&gt;Destruction&lt;/div&gt;" style="rounded=1;whiteSpace=wrap;html=1;" vertex="1" parent="1">
          <mxGeometry x="360" y="300" width="110" height="60" as="geometry" />
        </mxCell>
        <mxCell id="f6I67G7jqLtZipKl-iz8-7" value="IEC 60870-5-101 Payload" style="rounded=1;whiteSpace=wrap;html=1;" vertex="1" parent="1">
          <mxGeometry x="100" y="410" width="110" height="60" as="geometry" />
        </mxCell>
        <mxCell id="f6I67G7jqLtZipKl-iz8-8" value="IEC 60870-5-104 Payload" style="rounded=1;whiteSpace=wrap;html=1;" vertex="1" parent="1">
          <mxGeometry x="220" y="410" width="110" height="60" as="geometry" />
        </mxCell>
        <mxCell id="f6I67G7jqLtZipKl-iz8-9" value="&lt;div&gt;IEC 61850&lt;/div&gt;&lt;div&gt;Payload&lt;/div&gt;" style="rounded=1;whiteSpace=wrap;html=1;" vertex="1" parent="1">
          <mxGeometry x="340" y="410" width="110" height="60" as="geometry" />
        </mxCell>
        <mxCell id="f6I67G7jqLtZipKl-iz8-10" value="&lt;div&gt;OPC DA&lt;/div&gt;&lt;div&gt;Payload&lt;/div&gt;" style="rounded=1;whiteSpace=wrap;html=1;" vertex="1" parent="1">
          <mxGeometry x="460" y="410" width="110" height="60" as="geometry" />
        </mxCell>
        <mxCell id="f6I67G7jqLtZipKl-iz8-11" value="" style="endArrow=classic;html=1;rounded=0;entryX=0;entryY=0.833;entryDx=0;entryDy=0;entryPerimeter=0;" edge="1" parent="1" target="f6I67G7jqLtZipKl-iz8-2">
          <mxGeometry width="50" height="50" relative="1" as="geometry">
            <mxPoint x="280" y="190" as="sourcePoint" />
            <mxPoint x="340" y="190" as="targetPoint" />
          </mxGeometry>
        </mxCell>
        <mxCell id="f6I67G7jqLtZipKl-iz8-12" value="" style="endArrow=classic;html=1;rounded=0;entryX=0;entryY=0.833;entryDx=0;entryDy=0;entryPerimeter=0;" edge="1" parent="1">
          <mxGeometry width="50" height="50" relative="1" as="geometry">
            <mxPoint x="280" y="230" as="sourcePoint" />
            <mxPoint x="360" y="230" as="targetPoint" />
          </mxGeometry>
        </mxCell>
        <mxCell id="f6I67G7jqLtZipKl-iz8-13" value="" style="endArrow=classic;html=1;rounded=0;entryX=0;entryY=0.833;entryDx=0;entryDy=0;entryPerimeter=0;" edge="1" parent="1">
          <mxGeometry width="50" height="50" relative="1" as="geometry">
            <mxPoint x="280" y="329.83" as="sourcePoint" />
            <mxPoint x="360" y="329.83" as="targetPoint" />
          </mxGeometry>
        </mxCell>
        <mxCell id="f6I67G7jqLtZipKl-iz8-14" value="" style="endArrow=classic;html=1;rounded=0;entryX=0.5;entryY=0;entryDx=0;entryDy=0;" edge="1" parent="1" target="f6I67G7jqLtZipKl-iz8-5">
          <mxGeometry width="50" height="50" relative="1" as="geometry">
            <mxPoint x="224.76" y="240" as="sourcePoint" />
            <mxPoint x="224.76" y="270" as="targetPoint" />
          </mxGeometry>
        </mxCell>
        <mxCell id="f6I67G7jqLtZipKl-iz8-15" value="" style="endArrow=classic;html=1;rounded=0;movable=1;resizable=1;rotatable=1;deletable=1;editable=1;locked=0;connectable=1;" edge="1" parent="1">
          <mxGeometry width="50" height="50" relative="1" as="geometry">
            <mxPoint x="144.76" y="390" as="sourcePoint" />
            <mxPoint x="144.76" y="410" as="targetPoint" />
          </mxGeometry>
        </mxCell>
        <mxCell id="f6I67G7jqLtZipKl-iz8-16" value="" style="endArrow=classic;html=1;rounded=0;" edge="1" parent="1">
          <mxGeometry width="50" height="50" relative="1" as="geometry">
            <mxPoint x="274.76" y="390" as="sourcePoint" />
            <mxPoint x="274.76" y="410" as="targetPoint" />
          </mxGeometry>
        </mxCell>
        <mxCell id="f6I67G7jqLtZipKl-iz8-17" value="" style="endArrow=classic;html=1;rounded=0;" edge="1" parent="1">
          <mxGeometry width="50" height="50" relative="1" as="geometry">
            <mxPoint x="394.8" y="390" as="sourcePoint" />
            <mxPoint x="394.8" y="410" as="targetPoint" />
          </mxGeometry>
        </mxCell>
        <mxCell id="f6I67G7jqLtZipKl-iz8-19" value="" style="endArrow=classic;html=1;rounded=0;" edge="1" parent="1">
          <mxGeometry width="50" height="50" relative="1" as="geometry">
            <mxPoint x="514.8" y="390" as="sourcePoint" />
            <mxPoint x="514.8" y="410" as="targetPoint" />
          </mxGeometry>
        </mxCell>
        <mxCell id="f6I67G7jqLtZipKl-iz8-20" value="" style="endArrow=none;html=1;rounded=0;" edge="1" parent="1">
          <mxGeometry width="50" height="50" relative="1" as="geometry">
            <mxPoint x="145" y="390" as="sourcePoint" />
            <mxPoint x="515" y="390" as="targetPoint" />
          </mxGeometry>
        </mxCell>
        <mxCell id="f6I67G7jqLtZipKl-iz8-21" value="" style="endArrow=none;html=1;rounded=0;" edge="1" parent="1">
          <mxGeometry width="50" height="50" relative="1" as="geometry">
            <mxPoint x="225" y="390" as="sourcePoint" />
            <mxPoint x="224.82999999999998" y="360" as="targetPoint" />
          </mxGeometry>
        </mxCell>
      </root>
    </mxGraphModel>
  </diagram>
</mxfile>
